<?xml version="1.0" encoding="utf-8"?>
<!-- Generator: Adobe Illustrator 19.0.0, SVG Export Plug-In . SVG Version: 6.00 Build 0)  -->
<svg version="1.1" id="Calque_1" xmlns="http://www.w3.org/2000/svg" xmlns:xlink="http://www.w3.org/1999/xlink" x="0px" y="0px"
	 viewBox="0 0 824.7 439.4" enable-background="new 0 0 824.7 439.4" xml:space="preserve">
<g>
	<title>Layer 1</title>
	<g id="layer1">
		<g id="g6444">
			<path id="path6438" fill="#EFEFEF" d="M653.7,0c-34.2,0.1-67.6,25.9-78.2,62.6c-15.5-8.8-36.2,1.4-41.3,20
				c-0.8,2.8-1.4,5.8-1.5,8.7c-24.3-4.8-53,4.1-66,29.1c-8.7,16.3-4.5,38.4,7.9,50.6c20.1,21.5,53,23.8,77.1,11
				c7.8,23.5,33.2,36.8,54.3,28.2c6.7-2.4,12.8-7.3,17.7-12.7c18.1,9.8,41,8.1,57.3-5.2c26.2,29.6,73.9,28.4,98.6-3
				c2.9-2.3,3.8-8.9,8.1-7.4c19.9,1.6,38.6-18.5,37-41.2c-0.7-23.3-22.1-41.2-42.1-36.4c-4.1,1.9-5.7-5-9.1-6.7
				c-9.6-9.5-22.4-14.7-34.4-17.4c-3.7-40.7-34.9-74-70.4-79.3C663.6,0.3,658.6-0.1,653.7,0L653.7,0z"/>
		</g>
	</g>
</g>
<polygon fill="#9D9D9C" points="436.6,307.2 311.8,239.3 312.1,50.2 436.9,118.1 436.6,307.2 "/>
<polygon fill="#D0D0D0" points="436.9,118.1 312.1,50.2 487.3,25.6 612.1,93.5 436.9,118.1 "/>
<polygon fill="#FFFFFF" points="612.1,93.5 611.7,282.6 436.6,307.2 436.9,118.1 612.1,93.5 "/>
<polygon fill="#8FC041" points="456.3,135 592.6,115.9 592.4,265.7 456,284.8 456.3,135 "/>
<polygon fill="#8FC041" points="330,228.4 330.3,80.9 418.7,129 418.4,276.5 330,228.4 "/>
<circle fill="#FFFFFF" cx="558.1" cy="173" r="12.8"/>
<circle fill="#FFFFFF" cx="492.4" cy="181.3" r="12.8"/>
<path fill="none" stroke="#FFFFFF" stroke-width="0.5" stroke-miterlimit="10" d="M391,156.9"/>
<g>
	<path fill="#FFFFFF" d="M559.1,204.6c0,0-0.1-0.1-0.1-0.1c-0.6-0.1-1.1-0.4-1.6-1.1c-0.4-0.6-0.6-1.2-0.6-2.1
		c-0.1-1.2,0.1-2.4,0.4-3.4c0.5-1.6,1-3.2,1.5-4.7c0.3-0.8,0.5-1.6,0.8-2.5c0.1,0.3,0.2,0.5,0.3,0.8c0.2,0.6,0.4,1.2,0.5,1.7
		c0.2,0.7,0.5,1.4,0.7,2c0.2,0.7,0.4,1.5,0.7,2.2c0.3,0.7,0.5,1.5,0.6,2.3c0.1,1,0.2,1.9-0.2,2.8c-0.2,0.6-0.5,1-0.8,1.3
		c-0.2,0.2-0.5,0.4-0.8,0.6c-0.2,0.1-0.5,0.1-0.8,0.1c-0.2,0-0.4,0-0.6,0C559.2,204.6,559.1,204.6,559.1,204.6L559.1,204.6z"/>
</g>
<g>
	<g>
		<path fill="#FFFFFF" d="M498.1,253.1c5.1-9.8,15.8-16.3,26.6-17.2c12.1-1,27.1,0.2,36.7,8.2c0.7,0.6,1.8-0.4,1.1-1.1
			c-10.3-8.6-26.7-10-39.6-8.5c-10.6,1.2-21.1,8.2-26,17.7C496.4,253.2,497.7,253.9,498.1,253.1L498.1,253.1z"/>
	</g>
</g>
<g>
	<title>Layer 1</title>
	<g id="layer1_1_">
		<g id="g6444_1_">
			<path id="path6438_1_" fill="#E0E0E0" d="M279.9,127.2c-50,0.2-98.8,37.8-114.3,91.5c-22.6-12.9-52.9,2-60.3,29.2
				c-1.2,4.1-2,8.4-2.2,12.8c-35.4-7-77.4,6-96.4,42.5c-12.7,23.8-6.5,56,11.6,74c29.3,31.5,77.4,34.8,112.6,16.1
				c11.4,34.4,48.5,53.8,79.3,41.2c9.8-3.6,18.8-10.7,25.9-18.6c26.4,14.4,59.9,11.8,83.7-7.6c38.3,43.3,108,41.5,144-4.4
				c4.3-3.3,5.5-13,11.8-10.8c29.1,2.3,56.4-27,54.1-60.1c-1-34.1-32.2-60.2-61.5-53.2c-6.1,2.8-8.4-7.3-13.3-9.8
				c-14.1-13.9-32.7-21.5-50.3-25.3c-5.3-59.4-51-108.1-102.8-115.8C294.4,127.5,287.1,127,279.9,127.2L279.9,127.2z"/>
		</g>
	</g>
</g>
</svg>
