<?xml version="1.0" encoding="utf-8"?>
<!-- Generator: Adobe Illustrator 20.1.0, SVG Export Plug-In . SVG Version: 6.00 Build 0)  -->
<svg version="1.1" id="Calque_1" xmlns="http://www.w3.org/2000/svg" xmlns:xlink="http://www.w3.org/1999/xlink" x="0px" y="0px"
	 viewBox="0 0 494 469.9" style="enable-background:new 0 0 494 469.9;" xml:space="preserve">
<style type="text/css">
	.st0{fill:#EB1414;}
	.st1{fill:#FFFFFF;}
</style>
<g>
	<polygon class="st0" points="247,0 247,259.1 308.9,176.5 	"/>
	<polygon class="st0" points="247,259.1 494,179.5 345.8,292.7 	"/>
	<polygon class="st0" points="247,259.1 399.7,469.9 246.2,363.6 	"/>
	<polygon class="st0" points="94.4,469.9 247,259.1 148.2,291 	"/>
	<polygon class="st0" points="247,259.1 0,179.5 186.8,175.7 	"/>
</g>
<g>
	<polygon class="st1" points="247,0 247,259.1 185.1,176.5 	"/>
	<polygon class="st1" points="247,259.1 0,179.5 148.2,292.7 	"/>
	<polygon class="st1" points="247,259.1 94.4,469.9 247.9,363.6 	"/>
	<polygon class="st1" points="399.7,469.9 247,259.1 345.8,291 	"/>
	<polygon class="st1" points="247,259.1 494,179.5 307.2,175.7 	"/>
</g>
</svg>
